# xmcd
#
# Track frame offsets:
#	150
#	24362
#	83447
#
# Disc length: 2504 seconds
# Revision: 0
# Processed by: cddbd v1.5.2PL0 Copyright (c) Steve Scherf et al.
# Submitted via: dBpowerAMP V12.0
#
DISCID=1009c603
DTITLE=The Allman Brothers Band - At Fillmore East [MFSL UDCD 2-558]
DYEAR=1971
DGENRE=Blues Rock
TTITLE0=Hot 'Lanta
TTITLE1=In Memory Of Elizabeth Reed
TTITLE2=Whipping Post
EXTD=
EXTT0=
EXTT1=
EXTT2=
PLAYORDER=
